{"title":"Lost S01E01 - AVM","uid":5033198,"size":148548405,"categoryP":"video","categoryS":"tv_shows","magnet":"?xt=urn:btih:b587a6a2227466f01ee3cf4eca19a1dd0633dcbd&amp;dn=Lost+S01E01+-+AVM&amp;tr=udp%3A%2F%2Ftracker.openbittorrent.com%3A80&amp;tr=udp%3A%2F%2Fopen.demonii.com%3A1337&amp;tr=udp%3A%2F%2Ftracker.coppersurfer.tk%3A6969&amp;tr=udp%3A%2F%2Fexodus.desync.com%3A6969","seeders":5,"leechers":0,"uploader":"SysProfile","files":2,"time":1248988075,"description":"AVIDMobile - http://www.avidmobile.com.ar (Mobile media)\n\nVideo\nID : 1\nFormat : MPEG-4 Visual\nFormat profile : Simple@L1\nFormat settings, BVOP : No\nFormat settings, QPel : No\nFormat settings, GMC : No warppoints\nFormat settings, Matrix : Default (H.263)\nCodec ID : 20\nDuration : 42mn 17s\nBit rate mode : Variable\nBit rate : 502 Kbps\nMaximum bit rate : 2 965 Kbps\nWidth : 320 pixels\nHeight : 240 pixels\nDisplay aspect ratio : 4/3\nFrame rate mode : Variable\nFrame rate : 23.976 fps\nMinimum frame rate : 23.974 fps\nMaximum frame rate : 23.981 fps\nResolution : 24 bits\nColorimetry : 4:2:0\nScan type : Progressive\nBits/(Pixel*Frame) : 0.273\nStream size : 152 MiB (88%)\n\nAudio\nID : 2\nFormat : AAC\nFormat/Info : Advanced Audio Codec\nFormat version : Version 4\nFormat profile : LC\nFormat settings, SBR : No\nCodec ID : 40\nDuration : 42mn 16s\nBit rate mode : Variable\nBit rate : 64.3 Kbps\nMaximum bit rate : 105 Kbps\nChannel(s) : 2 channels\nChannel positions : L R\nSampling rate : 22.05 KHz\nResolution : 16 bits\nStream size : 19.5 MiB (11%)","torrent":{"xt":"urn:btih:b587a6a2227466f01ee3cf4eca19a1dd0633dcbd","amp;dn":"Lost+S01E01+-+AVM","amp;tr":["udp%3A%2F%2Ftracker.openbittorrent.com%3A80","udp%3A%2F%2Fopen.demonii.com%3A1337","udp%3A%2F%2Ftracker.coppersurfer.tk%3A6969","udp%3A%2F%2Fexodus.desync.com%3A6969"],"infoHash":"b587a6a2227466f01ee3cf4eca19a1dd0633dcbd","infoHashBuffer":{"type":"Buffer","data":[181,135,166,162,34,116,102,240,30,227,207,78,202,25,161,221,6,51,220,189]},"announce":[],"urlList":[]}}